<?xml version="1.0" encoding="utf-8"?>
<!-- Generator: Adobe Illustrator 19.2.1, SVG Export Plug-In . SVG Version: 6.00 Build 0)  -->
<!DOCTYPE svg PUBLIC "-//W3C//DTD SVG 1.1//EN" "http://www.w3.org/Graphics/SVG/1.1/DTD/svg11.dtd">
<svg version="1.1" id="Layer_1" xmlns="http://www.w3.org/2000/svg" xmlns:xlink="http://www.w3.org/1999/xlink" x="0px" y="0px"
	 viewBox="0 0 239.9 268.1" style="enable-background:new 0 0 239.9 268.1;" xml:space="preserve">
<style type="text/css">
	.st0{fill:#82573A;}
	.st1{fill:none;stroke:#82573A;stroke-width:0;stroke-linecap:round;stroke-linejoin:round;}
</style>
<g>
	<path class="st0" d="M112,37.8c2.7-0.2,5.4-0.3,8-0.3c1.7,0,3.3,0,5,0.1c0-0.3,0-0.6,0-0.9c0-1.1,0-2.2,0.1-3.2h0
		c0-1.2,0.1-2.3,0.1-3.3c-1.7-0.1-3.4-0.1-5.1-0.1c-2.7,0-5.5,0.1-8.2,0.3c0.1,2.2,0.2,4.5,0.2,6.9C112,37.6,112,37.7,112,37.8z"/>
	<path class="st0" d="M26.8,84.9c0.3,0.1,0.7,0.3,1.1,0.4c1.7-2.4,3.5-4.8,5.4-7.1c1.3-1.5,2.6-3,3.9-4.5l-0.6-0.3l-3.7-1.8
		l-1.9-0.9c-0.3-0.1-0.5-0.2-0.7-0.4c-0.9,1-1.8,2-2.7,3.1c-2.5,3-4.7,6-6.9,9.2l4.3,1.5L26.8,84.9z"/>
	<path class="st0" d="M137.6,33.4L137.6,33.4c0,1.8,0.2,3.7,0.3,5.6c5.6,0.9,11.1,2.2,16.5,4c0-1.8,0.1-3.5,0.1-4.9
		c0-1.1,0-2,0.1-2.8c-5.6-1.7-11.3-3-17.1-3.8C137.6,32.1,137.6,32.7,137.6,33.4L137.6,33.4z"/>
	<path class="st0" d="M45.6,60.9l0.5,0.2l3.2,1.4c3.2-2.6,6.6-5.1,10.2-7.3l-7.7-3.7c-3.5,2.4-6.9,5-10.1,7.8l1.3,0.5L45.6,60.9z"/>
	<path class="st0" d="M30.1,216.8c-0.4,0.1-0.8-0.1-1.1-0.4c-9.8-13.4-16.8-29.1-19.9-46.6c-1.2-6.7-1.8-13.4-1.8-19.9
		c0-19.2,5-37.6,13.8-53.8l-5.5-2.4l-1.3-0.6C5.2,110.3,0,129.7,0,149.9c0,7,0.6,14.1,1.9,21.2c3.3,18.3,10.6,35,20.8,49.1
		c0.3,0.4,0.3,0.9,0,1.3c-1.9,2.7-2.7,6.1-1.9,9.6c1.4,5.9,7.2,9.8,13.2,8.9c6.6-1,11.1-7.2,9.9-13.7
		C42.8,220.1,36.9,215.6,30.1,216.8z"/>
	<path class="st0" d="M237.9,129c-5.2-29-20.4-53.7-41.5-71.2c-9.3-7.7-19.8-14.1-31.1-18.7c0.1,1.7,0.2,3.6,0.3,5.7
		c0.1,0.8,0.1,1.7,0.2,2.5c9.3,4.2,18.1,9.6,25.9,16.1c19.8,16.4,34,39.5,38.9,66.8c1.2,6.8,1.8,13.7,1.8,20.6
		c0,27.6-9.5,55.3-25.7,75.8c-8.1,10.3-17.9,18.8-29.1,24.7c-11.2,5.9-23.7,9.3-37.3,9.3c-12.1,0-23.2-5.1-31.3-13.1
		C101,239.6,96,228.6,96,216.8c0-8,2.3-16.4,7.6-24.8c0,0,0.1-0.1,0.1-0.1c-1.1-0.5-2.3-1-3.4-1.6c1.1,0.5,2.3,1,3.4,1.6
		c4.1-6.4,10.1-12.7,18.2-18.7c0,0,0.1,0,0.1-0.1c0.5-0.3,1.2-0.4,1.8,0c3.8,2.2,8.7,1.8,12-1.4c2.3-2.2,3.2-5.3,2.9-8.2
		c-0.1-0.6,0.3-1.2,0.8-1.6c0.5-0.4,1.1-0.7,1.6-1.1c0.1-0.1,0.2-0.1,0.2-0.2c0.9-0.6,1.7-1.2,2.6-1.8c0.6-0.4,1.3-0.4,1.9,0
		c4,2.6,9.3,2.4,13.2-0.8c1.6-1.3,2.7-3,3.3-4.8c0.7-1.9,0.8-4.1,0.4-6.1c-0.1-0.7,0.2-1.4,0.7-1.7c0.6-0.4,1.3-0.9,1.9-1.3
		c0.8-0.6,1.7-1.1,2.5-1.7c0.1-0.1,0.2-0.1,0.2-0.2c0.6-0.4,1.4-0.4,2,0c4.4,3.2,10.6,3.2,15-0.4c4.9-4,6-11,2.6-16.3
		c-0.2-0.4-0.5-0.7-0.8-1.1c0,0-0.6-0.7-1.6-2c-0.1-0.2-0.3-0.4-0.5-0.6c-3.3-3.9-5.7-8.3-7.2-13.2c-0.3-0.9-0.5-1.7-0.7-2.2
		c-0.8-2.5-1.4-5.1-2.2-7.7l0,0l0,0c-0.4-1.6-0.9-3.2-1.3-4.9l0,0l0,0c-0.5-2.1-1-4.1-1.5-6.2l0,0c-0.5-2.1-1-4.1-1.4-6.2
		c-0.4-2-0.8-4.1-1.2-6.1l0,0c-0.4-2-0.8-3.9-1.1-5.9c-0.3-1.9-0.6-3.8-0.9-5.7c-0.3-1.8-0.5-3.6-0.8-5.4l0,0
		c-0.2-1.7-0.4-3.4-0.5-5c-0.2-2.4-0.5-4.6-0.7-6.6c-0.1-0.7-0.1-1.5-0.2-2.2l0,0l0,0c-0.1-2.3-0.2-4.3-0.3-6c0-0.3,0-0.5,0-0.8
		c-0.2-3.8-0.3-6-0.3-6l0-0.2c-0.1-2.1-1.6-4-3.7-4.3c-0.3-0.1-0.6-0.1-0.8-0.1c-2.5,0-4.4,2-4.5,4.4c0,0,0,1.3-0.1,3.6
		c0,0.8,0,1.6-0.1,2.6c0,1.5-0.1,3.2-0.1,5.1c0,0.7,0,1.3-0.1,2.1c0,2.7,0.2,5.8,0.2,9.2c0.1,1.7,0.1,3.5,0.2,5.3
		c0.1,1.8,0.3,3.7,0.4,5.6c0.2,1.9,0.3,3.9,0.5,6c0.2,2,0.5,4.1,0.7,6.2c0.3,2.1,0.5,4.2,0.8,6.4c0.3,2.2,0.7,4.3,1,6.5
		c0.4,2.2,0.7,4.4,1.1,6.6c0,0.2,0.1,0.3,0.1,0.5c-0.1-0.1-0.3-0.2-0.4-0.3c-0.1-0.1-0.3-0.2-0.4-0.3c-0.6-0.5-1.3-1.1-1.9-1.6
		c-1.7-1.4-3.4-2.9-5.3-4.4c-0.4-0.3-0.7-0.6-1.1-0.9c-2.2-1.7-4.5-3.5-6.8-5.4c-0.1-0.1-0.2-0.2-0.3-0.2c-0.1-0.1-0.3-0.2-0.4-0.3
		c-0.1-0.1-0.3-0.2-0.4-0.3c-0.8-4.2-1.5-8.3-2.2-12.4l0,0l0,0c-0.7-4.9-1.3-9.7-1.9-14.3c-0.1-1.1-0.3-2.3-0.4-3.4l0,0l0,0
		c-0.1-1.1-0.2-2.2-0.3-3.3c-0.2-2.1-0.4-4.2-0.5-6.2c-0.1-1.9-0.3-3.7-0.5-5.4c-0.2-1.9-0.3-3.8-0.3-5.5h0c0-0.7,0-1.4-0.1-2
		c-0.1-2.4-0.2-4.6-0.2-6.4c-0.2-4.7-0.3-7.3-0.3-7.4l0,0c-0.1-2.6-2.1-4.9-4.7-5.1c-0.2,0-0.3,0-0.4,0c-2.8,0-5,2.2-5.1,4.9
		c0,0-0.1,2.7-0.2,7.6c0,1.6-0.1,3.4-0.2,5.4c0,1.1-0.1,2.1-0.1,3.3l0,0l0,0c-0.1,1-0.1,2.1-0.1,3.2c0,0.3,0,0.6,0,0.9
		c0,2.2,0.1,4.6,0.1,7.2c0,2.1,0.1,4.2,0.1,6.5c0,1.1,0,2.2,0.1,3.4c0.1,1.1,0.1,2.3,0.2,3.5c0.3,4.6,0.6,9.4,1,14.3
		c-0.1-0.1-0.2-0.2-0.3-0.2c-0.1-0.1-0.2-0.2-0.3-0.2c-1.7-1.1-3.5-2.3-5.2-3.4c-1.7-1.2-3.6-2.3-5.4-3.4c-0.7-0.4-1.4-0.9-2.2-1.3
		c-0.1-0.1-0.2-0.1-0.3-0.2s-0.2-0.1-0.3-0.2c-0.3-3.8-0.6-7.5-0.9-11.1c-0.3-2.7-0.3-5.3-0.4-7.8c-0.1-2.4-0.2-4.6-0.2-6.8
		c0-0.2,0-0.3,0-0.5c-0.1-2.4-0.2-4.7-0.2-6.9c0-1-0.1-2.1-0.1-3.1c0-1,0-1.9,0.1-2.8h0c0.1-3.8,0.1-7.1,0.2-9.9
		c0.1-2.7,0.1-4.9,0.1-6.4c0-1.5,0-2.2,0-2.3l0-0.1l0-0.1c0-2.9-2-5.5-4.9-5.9c-0.3,0-0.5-0.1-0.8-0.1c-3,0-5.4,2.3-5.7,5.2
		c0,0-0.1,0.8-0.2,2.3c-0.1,1.5-0.3,3.7-0.5,6.5c-0.2,2.8-0.5,6.2-0.8,10.1l0,0l0,0c-0.3,2.4-0.4,5.1-0.4,8c0,1.7-0.1,3.4-0.2,5.2
		c0,0.8,0,1.6-0.1,2.4c0,1.7-0.1,3.4-0.2,5.2c-0.1,1.8-0.1,3.7-0.1,5.5c0,0.8,0,1.7,0.1,2.5l0,0l0,0c0,0.6,0,1.3,0,2
		c-0.1-0.1-0.2-0.1-0.3-0.2c-0.1-0.1-0.2-0.1-0.3-0.2c-3-1.6-6.1-3.2-9.1-4.8c-0.2-0.1-0.4-0.2-0.6-0.3c0,0,0,0,0,0
		c-0.2-0.1-0.4-0.2-0.7-0.3l0,0c-0.9-0.4-1.8-0.8-2.7-1.3c-0.1-0.1-0.3-0.1-0.4-0.2c-1.7-0.8-3.3-1.6-5-2.3
		c-0.5-0.2-0.9-0.4-1.4-0.6c-0.5-0.2-1-0.5-1.4-0.7c-1.8-0.8-3.6-1.7-5.4-2.5c-0.3-0.1-0.5-0.2-0.8-0.3c-0.3-0.1-0.5-0.2-0.8-0.3
		c-4.5-1.8-8.8-3.6-12.9-5.3c-0.5-0.2-1.1-0.4-1.6-0.7c0,0-0.1,0-0.1,0c-0.2-0.1-0.3-0.1-0.5-0.2c-2.4-1-4.8-1.8-7.1-2.6
		c-2.5-0.9-4.9-1.7-7.1-2.5c-4.6-1.6-8.7-3.1-12.6-4.1c-3.8-1.1-7.1-2-9.8-2.8c-5.4-1.6-8.5-2.5-8.5-2.5c-3.2-0.9-6.7,1-7.5,4.4
		c-0.7,3,1.2,6.1,4.1,7.1l0.1,0c0,0,2.9,1.1,8.1,2.9c2.6,0.9,5.7,2,9.3,3.3c3.6,1.2,7.5,3,11.9,4.7c1.8,0.8,3.7,1.6,5.7,2.4
		c0.2,0.1,0.3,0.1,0.5,0.2c0.2,0.1,0.3,0.1,0.5,0.2l0,0l0.1,0c0.4,0.2,0.8,0.3,1.2,0.5c1.6,0.7,3.2,1.3,4.8,2.1
		c0.4,0.2,0.7,0.3,1.1,0.5c1.4,0.7,2.8,1.4,4.3,2.1c2.5,1.2,5.1,2.5,7.8,3.7c0.7,0.3,1.5,0.7,2,0.9c0.4,0.2,0.7,0.4,1.1,0.5
		c1.6,0.9,3.3,1.8,5,2.7c0.2,0.1,0.3,0.2,0.5,0.3c3.4,1.9,6.8,3.7,10.3,5.6c2.3,1.4,4.5,2.8,6.8,4.1c2.5,1.5,5.1,3.1,7.6,4.7
		c2.7,1.8,5.5,3.7,8.2,5.5c2.2,1.5,4.4,3,6.6,4.5c0.6,0.4,1.2,0.9,1.7,1.3c4.1,3.1,8.2,6.1,12.1,9.2c0.7,0.6,1.4,1.1,2,1.7
		c2.2,1.8,4.5,3.6,6.5,5.4c2.1,1.8,4.1,3.6,6.1,5.4c2,1.7,3.8,3.5,5.6,5.2c1.8,1.7,3.5,3.3,5.1,5c2.7,2.8,5.1,5.3,7.3,7.7
		c0.4,0.5,0.8,0.9,1.2,1.4c2.5,2.7,4.4,5.2,6.1,7.2c0.3,0.4,0.7,0.9,1,1.3c0,0,0,0.1,0.1,0.1c0.6,0.8,0.4,1.9-0.4,2.5
		c-0.1,0.1-0.3,0.2-0.4,0.3c-1,0.7-2,1.4-3,2c-0.7,0.5-1.7,0.4-2.3-0.3c-0.7-0.8-1.4-1.6-2.3-2.6c-1.7-1.8-3.8-4.1-6.3-6.5
		c-2.4-2.5-5.3-5.1-8.4-8c-1.5-1.5-3.2-2.8-4.9-4.3c-1.7-1.5-3.5-3.1-5.4-4.5c-0.8-0.7-1.7-1.4-2.5-2c-1.1-0.9-2.1-1.7-3.2-2.6
		c-1.9-1.6-4.1-3.1-6.1-4.7c-1.5-1.1-3-2.2-4.5-3.4c-0.6-0.5-1.2-0.9-1.9-1.4c-2.2-1.5-4.5-3.1-6.7-4.6c-1.1-0.8-2.2-1.6-3.4-2.3
		c-1.2-0.7-2.3-1.5-3.5-2.2c-2.3-1.5-4.7-3-7-4.4c-0.8-0.5-1.5-0.9-2.3-1.3c-4-2.4-8.1-4.7-12.1-7c-4.8-2.5-9.6-5-14.2-7.3
		c-1.4-0.7-2.8-1.3-4.2-2c-0.2-0.1-0.3-0.1-0.5-0.2c-0.2-0.1-0.3-0.1-0.5-0.2l0,0c0,0-0.1,0-0.1-0.1c-1.6-0.7-3.2-1.5-4.7-2.2
		c-1.2-0.5-2.4-1.1-3.5-1.6c-0.2-0.1-0.3-0.1-0.5-0.2c-0.9-0.4-1.8-0.8-2.7-1.2c-1.1-0.4-2.1-0.9-3.2-1.3c-0.6-0.2-1.2-0.5-1.8-0.7
		c-1.4-0.6-2.9-1.2-4.2-1.7c0,0-0.1,0-0.1-0.1c-1.6-0.6-3.2-1.3-4.7-1.9c-0.1,0-0.2-0.1-0.3-0.1h0c-0.2-0.1-0.3-0.1-0.5-0.2
		c-0.2-0.1-0.3-0.1-0.5-0.2c-1.5-0.6-3-1.2-4.5-1.6c-3.2-1.1-5.9-2.1-8.2-2.8c-4.6-1.6-7.2-2.5-7.2-2.5c-2.9-1-6.1,0.6-7,3.6
		c-0.8,2.7,0.8,5.5,3.3,6.6l0,0c0,0,2.5,1,6.8,2.8c2.2,0.9,4.8,2,7.8,3.3c0.5,0.2,1,0.4,1.5,0.6c0.2,0.1,0.3,0.1,0.5,0.2
		c0.2,0.1,0.3,0.1,0.5,0.2c0,0,0,0,0,0c0.7,0.3,1.4,0.6,2.1,1c0.4,0.2,0.8,0.4,1.1,0.5c0.6,0.3,1.1,0.5,1.7,0.8
		c0.7,0.3,1.4,0.7,2.1,1c0.1,0.1,0.3,0.1,0.4,0.2c0,0,0.1,0,0.1,0c0.5,0.2,1,0.5,1.6,0.8c1.1,0.5,2.2,1.1,3.4,1.6
		c0.2,0.1,0.4,0.2,0.7,0.3c0.3,0.1,0.6,0.3,0.9,0.4c0.7,0.3,1.4,0.7,2.1,1c1,0.5,2,1.1,3,1.6c1.4,0.7,2.8,1.5,4.2,2.3c0,0,0,0,0,0h0
		c0.1,0.1,0.3,0.2,0.4,0.2c0.1,0.1,0.3,0.2,0.4,0.2c2.5,1.3,5,2.7,7.5,4.1c4.3,2.6,8.7,5.2,13.2,7.9c4.3,2.9,8.8,5.8,13.2,8.8
		c2.1,1.6,4.3,3.1,6.4,4.7c1.1,0.8,2.1,1.5,3.2,2.3c0.9,0.7,1.9,1.4,2.8,2.2c0.1,0.1,0.2,0.2,0.3,0.2c2,1.6,4.1,3.2,6.1,4.8
		c2,1.6,3.9,3.3,5.8,4.8c1.9,1.6,3.8,3.1,5.5,4.8c1.7,1.6,3.4,3.2,5.1,4.7c1.7,1.5,3.2,3.1,4.7,4.6c1.5,1.5,3,2.9,4.3,4.3
		c1.6,1.7,3.1,3.3,4.5,4.8c1,1,1.9,2.1,2.7,3c2.1,2.3,3.8,4.5,5.3,6.2c0.1,0.2,0.2,0.3,0.4,0.5c0,0,0,0,0,0c0.6,0.8,0.4,1.9-0.4,2.5
		c-0.6,0.4-1.1,0.8-1.7,1.1c-0.4,0.3-0.9,0.6-1.3,0.9c-0.7,0.5-1.6,0.4-2.2-0.2c-0.1-0.1-0.1-0.1-0.2-0.2c-0.6-0.5-1.2-1.2-1.9-1.9
		c-1.5-1.4-3.2-3.1-5.3-4.9c-2.1-1.8-4.4-4-7-6.2c-2.6-2.2-5.4-4.6-8.5-7c-3-2.5-6.3-4.9-9.7-7.5c-0.3-0.2-0.6-0.4-0.8-0.6
		c-1.4-1.1-2.9-2.1-4.4-3.2c-0.9-0.6-1.8-1.3-2.7-1.9c-0.9-0.6-1.8-1.3-2.7-1.9c-1.8-1.3-3.7-2.5-5.6-3.8c-2.3-1.6-4.7-3-7-4.5
		c-1.5-0.9-3-1.8-4.4-2.8c-1.9-1.1-3.9-2.3-5.8-3.4c-1.9-1.1-3.8-2.3-5.7-3.3c-1.9-1-3.8-2-5.7-3c-1.9-1-3.7-2-5.5-2.9
		c-1.8-0.9-3.6-1.7-5.4-2.6c-1.7-0.8-3.4-1.6-5-2.4c-0.4-0.2-0.8-0.3-1.1-0.5c-0.2-0.1-0.4-0.2-0.6-0.2c-0.2-0.1-0.3-0.1-0.5-0.2
		l0,0c0,0,0,0,0,0c-0.9-0.4-1.9-0.8-2.7-1.1c0,0,0,0-0.1,0c-1.6-0.6-3.1-1.3-4.5-1.9c-1.1-0.5-2.2-0.9-3.2-1.3
		c-0.3-0.1-0.6-0.2-0.9-0.3c-0.5-0.2-1-0.4-1.5-0.5c-1.8-0.6-3.4-1.2-4.8-1.7c-0.1,0-0.3-0.1-0.4-0.2c-0.3-0.1-0.6-0.2-0.9-0.3
		c-2.4-0.9-4-1.4-4.7-1.6c0,0-0.1,0-0.1,0v0c-0.1,0-0.2-0.1-0.2-0.1c-0.1,0-0.2,0-0.3-0.1c-0.2,0-0.3-0.1-0.5-0.1
		c-2.5-0.4-5,1.2-5.5,3.9c-0.2,1.3,0.1,2.5,0.8,3.5c0.1,0.1,0.2,0.3,0.3,0.4c0.1,0.1,0.2,0.3,0.3,0.4c0,0,0,0,0,0c0,0,0.1,0,0.1,0.1
		c0,0,0,0,0,0c0.2,0.2,0.4,0.3,0.6,0.5c0,0,0,0,0.1,0c0.2,0.1,0.4,0.2,0.6,0.3l0.1,0l0,0l0,0l0.1,0.1c0,0,0.1,0.1,0.4,0.2
		c0.2,0.1,0.4,0.2,0.6,0.3c0.5,0.2,1.3,0.6,2.2,1c0.3,0.1,0.7,0.3,1,0.4c0.4,0.2,0.8,0.3,1.2,0.5c0.4,0.2,0.8,0.3,1.2,0.5
		c1.3,0.6,2.8,1.2,4.4,1.9c0.2,0.1,0.4,0.2,0.7,0.3c0.6,0.3,1.2,0.6,1.8,0.9c0.6,0.3,1.3,0.6,1.9,1c1.3,0.7,2.7,1.4,4.2,2.1
		c0.5,0.2,0.9,0.5,1.4,0.7l0,0c0.1,0.1,0.3,0.1,0.4,0.2c0.1,0.1,0.3,0.1,0.4,0.2c0.7,0.4,1.5,0.7,2.2,1.2c1.5,0.9,3.1,1.7,4.7,2.7
		c1.6,0.9,3.3,1.8,5,2.8c1.7,1,3.4,2.1,5.1,3.1c1.7,1.1,3.5,2.2,5.2,3.3c1.8,1.1,3.5,2.3,5.3,3.5c1.7,1.2,3.5,2.4,5.3,3.6
		c1.4,1,2.7,2,4.1,3c2.1,1.7,4.3,3.1,6.4,4.8c1.7,1.3,3.4,2.7,5,4c0.8,0.7,1.7,1.3,2.5,2c0.8,0.7,1.6,1.4,2.4,2
		c1.6,1.3,3.2,2.7,4.7,4c3,2.7,6,5.3,8.7,7.8c2.7,2.5,5.3,4.9,7.5,7.2c2.3,2.2,4.3,4.4,6.2,6.3c1,1,2.3,2.5,3.4,3.6
		c0.2,0.4,0.5,0.8,0.7,1.2c0.1,0.6-0.2,1.2-0.7,1.6c-8.5,6.4-14.9,13.3-19.3,20.5c0,0,0,0,0,0c0,0,0,0,0,0c-5.7,9.2-8.3,18.8-8.3,28
		c0,13.9,5.9,26.8,15.2,36.1c9.4,9.4,22.3,15.3,36.5,15.3c14.9,0,28.6-3.7,40.8-10.2c18.2-9.7,32.9-25.5,43-44.4
		c10.1-18.8,15.7-40.7,15.7-62.7C239.9,143.6,239.2,136.2,237.9,129z"/>
	<path class="st0" d="M97.3,39.9c0-0.8,0-1.7,0.1-2.5c0.1-1.7,0.1-3.4,0.1-5.1c-9.4,1.8-18.3,4.6-26.7,8.4l9,4.2
		C85.4,42.8,91.3,41.1,97.3,39.9z"/>
	<polygon class="st0" points="41,46.1 41.2,45.6 41,46.1 	"/>
	<path class="st1" d="M52.4,65c1.6,0.7,3.1,1.4,4.7,2.2"/>
	<path class="st1" d="M26.1,67.3c-0.7-0.3-1.4-0.7-2.1-1"/>
	<path class="st1" d="M28.9,68.6c-0.6-0.3-1.1-0.5-1.7-0.8"/>
	<path class="st1" d="M69.6,41.2c-0.3-0.1-0.5-0.2-0.8-0.3"/>
	<path class="st1" d="M77.2,44.8c0.5,0.2,0.9,0.4,1.4,0.6"/>
	<path class="st1" d="M9.8,90C9.8,90,9.8,90,9.8,90"/>
	<path class="st1" d="M9.1,89.5C9.1,89.5,9.1,89.5,9.1,89.5"/>
	<path class="st1" d="M35.1,89.3c0.9,0.4,1.8,0.8,2.7,1.1"/>
</g>
</svg>
