<?xml version="1.0" encoding="utf-8"?>
<!-- Generator: Adobe Illustrator 19.2.1, SVG Export Plug-In . SVG Version: 6.00 Build 0)  -->
<!DOCTYPE svg PUBLIC "-//W3C//DTD SVG 1.1//EN" "http://www.w3.org/Graphics/SVG/1.1/DTD/svg11.dtd">
<svg version="1.1" id="Layer_1" xmlns="http://www.w3.org/2000/svg" xmlns:xlink="http://www.w3.org/1999/xlink" x="0px" y="0px"
	 viewBox="0 0 354 347.6" style="enable-background:new 0 0 354 347.6;" xml:space="preserve">
<style type="text/css">
	.st0{fill:#6CAB43;}
</style>
<g>
	<g>
		<g>
			<path class="st0" d="M340.6,173.8"/>
		</g>
		<g>
			<path class="st0" d="M13.4,173.8C13.4,82.7,87.1,9,178.2,9l0,0c1.4,0,2.5,1.1,2.5,2.5l0,0c0,1.4-1.1,2.5-2.5,2.5l0,0
				c-44.2,0-84.1,17.9-113,46.8l0,0c-28.9,28.9-46.8,68.9-46.8,113.1l0,0c0,44.2,17.9,84.1,46.8,113.1l0,0
				c28.9,28.9,68.9,46.8,113,46.8l0,0c1.4,0,2.5,1.1,2.5,2.5l0,0c0,1.4-1.1,2.5-2.5,2.5l0,0C87.1,338.6,13.4,264.9,13.4,173.8
				L13.4,173.8z"/>
		</g>
		<g>
			<path class="st0" d="M25.9,173.8C25.9,89.7,94,21.5,178.2,21.5l0,0c84.2,0,152.3,68.2,152.3,152.3l0,0
				c0,84.2-68.1,152.3-152.3,152.3l0,0v-2.5v-2.5c40.7,0,77.6-16.5,104.2-43.1l0,0c26.7-26.7,43.1-63.5,43.1-104.2l0,0
				c0-40.7-16.5-77.5-43.1-104.2l0,0C255.8,43,219,26.5,178.2,26.5l0,0C137.5,26.5,100.7,43,74,69.6l0,0
				c-26.7,26.7-43.1,63.5-43.1,104.2l0,0c0,40.7,16.5,77.5,43.1,104.2l0,0c26.6,26.7,63.5,43.1,104.2,43.1l0,0v2.5v2.5
				C94,326.1,25.9,258,25.9,173.8L25.9,173.8z"/>
		</g>
		<g>
			<path class="st0" d="M79.3,272.7c-25.3-25.3-40.9-60.2-40.9-98.9l0,0c0-38.7,15.6-73.6,40.9-98.9l0,0
				C104.6,49.6,139.6,34,178.2,34l0,0c38.7,0,73.6,15.6,98.9,40.9l0,0c25.3,25.3,40.9,60.2,40.9,98.9l0,0
				c0,38.7-15.6,73.6-40.9,98.9l0,0c-25.3,25.3-60.3,40.9-98.9,40.9l0,0C139.6,313.6,104.6,298,79.3,272.7L79.3,272.7z M43.4,173.8
				c0,74.6,60.3,134.8,134.9,134.8l0,0c74.6,0,134.9-60.2,134.9-134.8l0,0C313.1,99.2,252.8,39,178.2,39l0,0
				C103.7,39,43.4,99.2,43.4,173.8L43.4,173.8z"/>
		</g>
		<g>
			<path class="st0" d="M178.2,301.2v-2.5v-2.5c33.8,0,64.4-13.7,86.6-35.9l0,0c22.1-22.2,35.8-52.8,35.8-86.6l0,0
				c0-33.8-13.7-64.4-35.8-86.6l0,0c-22.1-22.2-52.7-35.9-86.6-35.9l0,0c-33.8,0-64.4,13.7-86.5,35.9l0,0
				c-22.1,22.2-35.8,52.7-35.8,86.6l0,0c0,33.8,13.7,64.4,35.8,86.6l0,0c22.1,22.2,52.7,35.9,86.5,35.9l0,0v2.5V301.2
				c-70.4,0-127.3-57.1-127.3-127.4l0,0c0-70.3,56.9-127.4,127.3-127.4l0,0c70.4,0,127.3,57.1,127.3,127.4l0,0
				C305.6,244.1,248.7,301.2,178.2,301.2L178.2,301.2L178.2,301.2L178.2,301.2z"/>
		</g>
		<g>
			<path class="st0" d="M97,255.1c-20.8-20.8-33.6-49.5-33.6-81.3l0,0c0-31.8,12.8-60.5,33.6-81.3l0,0
				c20.8-20.8,49.5-33.6,81.3-33.6l0,0c1.4,0,2.5,1.1,2.5,2.5l0,0c0,1.4-1.1,2.5-2.5,2.5l0,0c-60.8,0-109.9,49.1-109.9,109.9l0,0
				c0,60.8,49.1,109.9,109.9,109.9l0,0c60.8,0,109.9-49.1,109.9-109.9l0,0c0-1.4,1.1-2.5,2.5-2.5l0,0c1.4,0,2.5,1.1,2.5,2.5l0,0
				c0,31.8-12.8,60.5-33.6,81.3l0,0c-20.8,20.8-49.5,33.6-81.3,33.6l0,0C146.5,288.7,117.8,275.9,97,255.1L97,255.1z"/>
		</g>
		<g>
			<path class="st0" d="M105.8,246.2c-18.5-18.5-30-44.1-30-72.4l0,0c0-28.3,11.4-53.9,30-72.4l0,0c18.5-18.5,44.1-30,72.4-30l0,0
				c28.3,0,53.9,11.5,72.4,30l0,0c18.5,18.5,30,44.1,30,72.4l0,0c0,1.3-1.1,2.5-2.5,2.5l0,0c-1.4,0-2.5-1.1-2.5-2.5l0,0
				c0-26.9-10.9-51.2-28.5-68.9l0,0c-17.6-17.6-42-28.5-68.9-28.5l0,0c-26.9,0-51.3,10.9-68.9,28.5l0,0
				c-17.6,17.6-28.5,41.9-28.5,68.9l0,0c0,26.9,10.9,51.2,28.5,68.9l0,0c17.6,17.6,42,28.5,68.9,28.5l0,0l0,0c1.4,0,2.5,1.1,2.5,2.5
				l0,0c0,1.4-1.1,2.5-2.5,2.5l0,0C149.9,276.2,124.3,264.7,105.8,246.2L105.8,246.2z"/>
		</g>
		<g>
			<path class="st0" d="M115.2,236.8c-16.1-16.1-26.1-38.3-26.1-63l0,0c0-24.6,9.9-46.9,26.1-63l0,0c16.1-16.1,38.4-26,63-26l0,0
				c24.6,0,46.9,9.9,63,26l0,0c16.1,16.1,26.1,38.4,26.1,63l0,0c0,24.6-10,46.9-26.1,63l0,0c-16.1,16.1-38.4,26-63,26l0,0
				C153.6,262.8,131.3,252.9,115.2,236.8L115.2,236.8z M92.5,173.8c0,47.4,38.3,85.7,85.8,85.7l0,0c47.4,0,85.8-38.3,85.8-85.7l0,0
				c0-47.4-38.4-85.7-85.8-85.7l0,0C130.8,88.1,92.5,126.4,92.5,173.8L92.5,173.8z"/>
		</g>
		<g>
			<path class="st0" d="M100.9,173.8c0-42.7,34.6-77.5,77.4-77.5l0,0c1.4,0,2.5,1.1,2.5,2.5l0,0c0,1.4-1.1,2.5-2.5,2.5l0,0
				c-20,0-38.1,8.1-51.2,21.3l0,0c-13.1,13.1-21.2,31.2-21.2,51.2l0,0c0,20,8.1,38.1,21.2,51.2l0,0c13.1,13.1,31.2,21.2,51.2,21.2
				l0,0c20,0,38.1-8.1,51.2-21.2l0,0c13.1-13.1,21.2-31.2,21.2-51.2l0,0c0-1.4,1.1-2.5,2.5-2.5l0,0c1.4,0,2.5,1.1,2.5,2.5l0,0
				c0,42.8-34.6,77.5-77.4,77.5l0,0C135.5,251.3,100.9,216.6,100.9,173.8L100.9,173.8z"/>
		</g>
		<g>
			<path class="st0" d="M173.3,236.3c0-2.8,2.3-5,5-5l0,0c31.7-0.1,57.4-25.7,57.5-57.5l0,0c0-31.8-25.7-57.5-57.5-57.5l0,0
				c-31.7,0-57.4,25.7-57.5,57.5l0,0c0,2.7-2.2,5-5,5l0,0c-2.8,0-5-2.2-5-5l0,0c0-37.3,30.2-67.4,67.4-67.4l0,0
				c37.3,0.1,67.5,30.1,67.5,67.4l0,0c0,37.3-30.2,67.4-67.5,67.4l0,0C175.5,241.2,173.3,239,173.3,236.3L173.3,236.3z"/>
		</g>
		<g>
			<path class="st0" d="M178.2,123.9"/>
		</g>
		<g>
			<path class="st0" d="M125.8,173.8c0-1.4,1.1-2.5,2.5-2.5l0,0c1.4,0,2.5,1.1,2.5,2.5l0,0c0.1,26.2,21.2,47.4,47.4,47.4l0,0
				c26.2-0.1,47.4-21.2,47.4-47.4l0,0c0-1.4,1.1-2.5,2.5-2.5l0,0c1.4,0,2.5,1.1,2.5,2.5l0,0c0,28.9-23.5,52.4-52.4,52.4l0,0
				C149.3,226.3,125.8,202.8,125.8,173.8L125.8,173.8z"/>
		</g>
		<g>
			<path class="st0" d="M136.6,173.8c0-23.1,18.7-41.5,41.6-41.6l0,0c23,0,41.6,18.5,41.6,41.6l0,0c0,23.1-18.7,41.5-41.6,41.6l0,0
				C155.3,215.3,136.6,196.9,136.6,173.8L136.6,173.8z M144.9,173.8c0,18.5,14.9,33.2,33.3,33.3l0,0c18.4,0,33.4-14.8,33.4-33.3l0,0
				c0-18.5-14.9-33.3-33.4-33.3l0,0C159.8,140.5,144.9,155.3,144.9,173.8L144.9,173.8z"/>
		</g>
		<g>
			<path class="st0" d="M173.3,198.9c0-2.8,2.3-5,5-5l0,0c11,0,20-9,20-20.1l0,0c0-11-9-20.1-20-20.1l0,0c-11,0-19.9,9-20,20.1l0,0
				l0,0c0,2.7-2.2,5-5,5l0,0c-2.8,0-5-2.2-5-5l0,0c0-16.5,13.4-30,30-30l0,0c16.6,0,30,13.5,30,30l0,0c0,16.5-13.4,30-30,30l0,0
				C175.5,203.9,173.3,201.6,173.3,198.9L173.3,198.9z"/>
		</g>
	</g>
</g>
</svg>
