<svg xmlns="http://www.w3.org/2000/svg" viewBox="0 0 507.34 507.43"><defs><style>.a{fill:#345e7e;}.b{fill:#f6b297;}.c{fill:#f07381;}.d{fill:#fff;}</style></defs><title>eidr-logo</title><path class="a" d="M399.42,46.06q-3.88-2.73-7.86-5.31A252.17,252.17,0,0,0,295,3.38l35.82,90a2.24,2.24,0,0,0,2.4,1.39,61.71,61.71,0,0,1,8.31-.6,65,65,0,0,1,46.09,19.09q2.05,2,3.91,4.28v1.13a64.45,64.45,0,0,1,0,81.35v1.13q-1.86,2.23-3.91,4.28a65,65,0,0,1-46.09,19.09c-1,0-2.07-.11-3.1-0.16l-19.68,64.43a2.24,2.24,0,0,0,1.18,2.66A65.1,65.1,0,0,1,319,408.77a2.25,2.25,0,0,0-1.22,2.65L341,492a252.77,252.77,0,0,0,50.58-25.31q4-2.58,7.86-5.31A253.73,253.73,0,0,0,399.42,46.06Z"/><path class="b" d="M276.93,150.86a64.92,64.92,0,0,1,36-50A2.24,2.24,0,0,0,314,98l-8.22-20.65a2.26,2.26,0,0,0-2.1-1.43H72.6a254.1,254.1,0,0,0-51.83,76.87H274.72A2.24,2.24,0,0,0,276.93,150.86Z"/><path class="b" d="M309.9,452.55H96A254.09,254.09,0,0,0,324.5,497.38l-12.43-43.19A2.26,2.26,0,0,0,309.9,452.55Z"/><path class="b" d="M305.91,432.76l-4.77-16.58a2.25,2.25,0,0,0-2.46-1.6,60.8,60.8,0,0,1-7.59.51,65,65,0,0,1-64.26-54.61,2.25,2.25,0,0,0-2.21-1.91H22.53a254.29,254.29,0,0,0,54.29,77.08H303.73A2.26,2.26,0,0,0,305.91,432.76Z"/><path class="b" d="M226.82,339.33a65,65,0,0,1,64.26-54.61,62,62,0,0,1,8.65.64,2.24,2.24,0,0,0,2.48-1.56l5-16.51a2.26,2.26,0,0,0-2.16-2.92H0.15a252.75,252.75,0,0,0,15.27,76.87h209.2A2.25,2.25,0,0,0,226.82,339.33Z"/><path class="b" d="M297.32,56L275.4,0.94C268.22,0.33,261,0,253.62,0A252.67,252.67,0,0,0,91.41,58.64H295.56A1.9,1.9,0,0,0,297.32,56Z"/><path class="b" d="M313.92,245.44l6.74-22.06a2.24,2.24,0,0,0-1.41-2.76A64.84,64.84,0,0,1,277.67,172a2.25,2.25,0,0,0-2.2-1.84H14A253,253,0,0,0,0,247H311.76A2.26,2.26,0,0,0,313.92,245.44Z"/><path class="c" d="M302,314.07a37.42,37.42,0,0,0-8.6-1.51c-0.78,0-1.55-.12-2.34-0.12a37.46,37.46,0,0,0,0,74.91c0.59,0,1.16-.06,1.74-0.09a37.45,37.45,0,0,0,8.62-1.39,37,37,0,0,0,8-3.37,37.91,37.91,0,0,0,8.09-6.12,37.46,37.46,0,0,0,0-53,37.94,37.94,0,0,0-7.57-5.8A37,37,0,0,0,302,314.07Z"/><path class="c" d="M337.87,196.66c1.21,0.12,2.44.19,3.68,0.19a37.87,37.87,0,0,0,5.45-.44,37.42,37.42,0,0,0-4.8-74.44c-0.22,0-.43,0-0.65,0a37.71,37.71,0,0,0-8.31,1,36.9,36.9,0,0,0-8.17,2.9,37.76,37.76,0,0,0-10,7.12,37.3,37.3,0,0,0-10.36,19.93,37.34,37.34,0,0,0,24.68,42A37.1,37.1,0,0,0,337.87,196.66Z"/><path class="d" d="M391.56,118.72q-2.06-2.53-4.39-4.87l0,0,0,0A64.22,64.22,0,0,0,343.3,95c-0.48,0-1-.05-1.71-0.05h0a64.93,64.93,0,0,0-14.24,1.62A64.95,64.95,0,0,0,296,113.78l0,0,0,0a64.46,64.46,0,0,0,0,91.09l0,0,0,0a64.81,64.81,0,0,0,39.25,18.53c2.12,0.21,4.23.31,6.28,0.31a64.65,64.65,0,0,0,9.36-.72A64,64,0,0,0,387.1,205l0,0,0,0q2.33-2.34,4.39-4.87A64.45,64.45,0,0,0,391.56,118.72Zm-85.87,51.45a37.33,37.33,0,0,1,19.39-44.38,36.9,36.9,0,0,1,8.17-2.9,37.71,37.71,0,0,1,8.31-1c0.22,0,.43,0,0.65,0a37.42,37.42,0,0,1,4.8,74.44,37.87,37.87,0,0,1-5.45.44c-1.25,0-2.47-.07-3.68-0.19a37.1,37.1,0,0,1-8.49-1.87A37.34,37.34,0,0,1,305.69,170.17Z"/></svg>