<?xml version="1.0" encoding="utf-8"?>
<!-- Generator: Adobe Illustrator 19.2.1, SVG Export Plug-In . SVG Version: 6.00 Build 0)  -->
<!DOCTYPE svg PUBLIC "-//W3C//DTD SVG 1.1//EN" "http://www.w3.org/Graphics/SVG/1.1/DTD/svg11.dtd">
<svg version="1.1" id="Layer_1" xmlns="http://www.w3.org/2000/svg" xmlns:xlink="http://www.w3.org/1999/xlink" x="0px" y="0px"
	 viewBox="0 0 302.3 268.6" style="enable-background:new 0 0 302.3 268.6;" xml:space="preserve">
<style type="text/css">
	.st0{fill:#0B3F63;}
</style>
<path class="st0" d="M298.6,56.8c-6.9-9.5-20.4-10.6-28.8-2.9c-5.4,5-7.4,12.4-5.7,19.1c0.6,2.4-0.2,4.8-2,6.5l-22,20.2
	c-0.6,0.5-1.3,0.9-2,1.1c-1.4-1.3-2.9-2.7-4.4-3.9c-3.6-3-7.4-5.7-11.3-8.1l6.6-27.2c1.2-5-5.3-8.1-8.5-4l-16.9,22.3
	c-6.9-2.4-14-4-21.4-4.8c-0.7-1.1-1.1-2.5-1-3.9l1.2-28.8c0.1-2.5,1.5-4.7,3.8-5.8c6.9-3.4,11.5-10.7,10.8-19.1
	c-0.7-8.8-7.6-16.1-16.3-17.5c-11.6-1.8-21.9,6.9-22.4,18.3c-0.3,7.4,3.6,14,9.5,17.5c2.1,1.2,3.2,3.6,3.1,6l-1.2,28.8
	c-0.1,1.4-0.6,2.8-1.4,3.8c-4.6,0.2-9.2,0.6-13.8,1.5c-2.1,0.4-4.2,0.8-6.3,1.4l-20.2-37.3c-1.2-2.3-4.8-1.1-4.3,1.5l7.9,41.5
	c-7.3,3.3-14,7.4-20.2,12.2c-1.4-0.3-2.7-0.9-3.7-2L88.2,72.1c-1.7-1.8-2.3-4.4-1.5-6.8c2.5-7.2,0.6-15.7-5.9-21.2
	c-6.7-5.7-16.7-6.1-23.9-0.8c-9.5,6.9-10.6,20.4-2.9,28.8c5,5.4,12.4,7.4,19.1,5.7c2.4-0.6,4.8,0.2,6.5,2L99.2,101
	c1,1.1,1.6,2.4,1.7,3.8c-1.5,1.6-3,3.2-4.4,4.9c-2.7,3.3-5.2,6.7-7.5,10.3L63,113.7c-5-1.2-8.1,5.3-4,8.5l21.2,16.1
	c-2.6,7-4.3,14.3-5.3,21.8c-1,0.5-2.2,0.8-3.4,0.8l-28.8-1.2c-2.5-0.1-4.7-1.5-5.8-3.8c-3.4-6.9-10.7-11.5-19.1-10.8
	c-8.8,0.7-16.1,7.6-17.5,16.3c-1.8,11.6,6.9,21.9,18.3,22.4c7.4,0.3,14-3.6,17.5-9.5c1.2-2.1,3.6-3.2,6-3.1l28.8,1.2
	c1.2,0.1,2.3,0.4,3.2,1c0.1,5.2,0.6,10.5,1.5,15.7c0.4,2.2,0.8,4.3,1.4,6.4l-37.3,20.2c-2,1.1-0.9,4.1,1.3,3.7l41.5-7.9
	c2.8,6.4,6.4,12.4,10.4,17.9c-1.7,2.1-2.5,4.9-2,7.7c0.9,5.2,5.9,8.7,11.1,7.7c5.2-0.9,8.7-5.9,7.7-11.1s-5.9-8.7-11.1-7.7
	c-0.2,0-0.4,0.1-0.6,0.1c-8.1-11-13.9-23.9-16.5-38.3c-1-5.4-1.4-10.8-1.4-16.2c0-21.7,7.8-42.2,21.1-58.3
	c13.3-16.1,32.1-27.7,54.3-31.6c5.4-1,10.8-1.4,16.2-1.4c21.7,0,42.2,7.8,58.3,21.1c16.1,13.3,27.7,32.1,31.6,54.3
	c1,5.5,1.4,10.9,1.4,16.3c0,21.8-7.7,42.5-21,58.6c-13.3,16.1-32.1,27.6-54.3,31.2c-3.3,0.5-6.5,0.8-9.4,0.8c-5.4,0-10-0.8-14-2.3
	c-5.9-2.2-10.4-5.8-13.4-10.5c-3-4.7-4.6-10.4-4.6-16.9c0-8.3,2.7-17.8,8.3-27.3c5.7-9.5,14.4-19.1,26.3-27.7c2.1-1.5,4.9-3,8.1-4.5
	c4.7-2.3,10.2-4.6,15.1-7.5c2.5-1.4,4.9-3,7-4.8c2.1-1.8,4-3.9,5.4-6.3c0.1-0.1,0.2-0.3,0.2-0.5c0,0,0,0,0,0c0,0,0,0,0,0
	c0,0,0-0.1,0-0.1c0.5-1.4,0.7-2.9,0.7-4.6c0-3.2-1.3-4.6-4.5-4.7c-3.8,0-7.1,1.1-9.8,3.9c-4.7,4.8-9.5,9.6-14.2,14.4
	c-1.3,1.4-2.6,1.9-4.5,1.9c-20-0.5-39.9-0.9-59.9-1.5c-3-0.1-5.3,0.6-7.3,2.8c-2.2,2.4-2.2,3.1,0.9,4.2
	c14.6,5.1,29.1,10.2,43.7,15.4c0.1,0,0.2,0.1,0.2,0.1c-5.2,5.3-9.4,10.8-12.7,16.4c-6.1,10.3-9.2,20.8-9.2,30.4c0,5,0.8,9.7,2.5,14
	c2.5,6.5,6.8,12,12.9,15.8c6,3.8,13.7,5.9,22.6,5.9c3.3,0,6.7-0.3,10.4-0.9c23.7-3.8,43.8-16.1,57.9-33.3
	c14.2-17.2,22.4-39.2,22.4-62.4c0-5.7-0.5-11.5-1.5-17.3c-3.1-17.1-10.4-32.4-20.8-44.9c0.3-0.7,0.7-1.3,1.3-1.8
	c5.7-5.2,16.5-15.1,21.9-20.1c1.8-1.7,4.4-2.3,6.8-1.5c7.2,2.5,15.7,0.6,21.2-5.9C303.5,73.9,303.9,63.9,298.6,56.8z"/>
</svg>
